# xmcd CD database file
#
# Track frame offsets:
#	150
#	8035
#	24633
#	41027
#	55399
#	74113
#	92443
#	105167
#	119969
#	136560
#	151932
#	166240
#	184296
#	211756
#	226124
#	242736
#	257044
#	267683
#
# Disc length: 3812 seconds
#
# Revision: 0
# Processed by: cddbd v1.5.2PL0 Copyright (c) Steve Scherf et al.
# Submitted via: CDex 1.70beta2
#
DISCID=f60ee212
DTITLE=FM2000 - Moskovan pasuunat
DYEAR=2006
DGENRE=
TTITLE0=Huomenna myö tapetaan tei'ät kaikki
TTITLE1=Imovane
TTITLE2=Kaljupää
TTITLE3=Korroosio
TTITLE4=Riistaa
TTITLE5=Helevetin harakka
TTITLE6=Pollari
TTITLE7=Väkevämies
TTITLE8=Säkkipimeä
TTITLE9=Roisto
TTITLE10=Sirkus
TTITLE11=Yksinäisten poikamiesten mustelma
TTITLE12=Moskovan pasuunat
TTITLE13=Kyynaama
TTITLE14=Nada
TTITLE15=Etana
TTITLE16=K.O.M.A
TTITLE17=Kanna ei ääni (live)
EXTD=YEAR: 2006
EXTT0=
EXTT1=
EXTT2=
EXTT3=
EXTT4=
EXTT5=
EXTT6=
EXTT7=
EXTT8=
EXTT9=
EXTT10=
EXTT11=
EXTT12=
EXTT13=
EXTT14=
EXTT15=
EXTT16=
EXTT17=
PLAYORDER=
